<svg xmlns="http://www.w3.org/2000/svg" x="0px" y="0px" width="50" height="50" viewBox="0 0 48 48">
<path d="M18.5 40c-.216 0-.434-.047-.636-.142C17.337 39.611 17 39.082 17 38.5V27.152l-9.398-8.757C5.968 17.014 5 14.927 5 12.717V9.5C5 8.121 6.121 7 7.5 7h28C36.879 7 38 8.121 38 9.5v3.046c0 2.312-1.095 4.535-2.928 5.944L26 26.194V33.5c0 .445-.197.867-.54 1.152l-6 5C19.186 39.882 18.845 40 18.5 40zM8 10v2.717c0 1.326.581 2.579 1.594 3.437l9.929 9.249C19.827 25.687 20 26.084 20 26.5v8.798l3-2.5V25.5c0-.44.193-.858.529-1.144l9.658-8.198C34.344 15.267 35 13.934 35 12.546V10H8zM35.5 10h.01H35.5zM36.5 43c-.384 0-.768-.146-1.061-.439l-7-7c-.429-.429-.558-1.074-.325-1.635S28.894 33 29.5 33h14c.606 0 1.153.365 1.386.926s.104 1.206-.325 1.635l-7 7C37.268 42.854 36.884 43 36.5 43zM33.121 36l3.379 3.379L39.879 36H33.121z"></path>
</svg>